HIERARCHY
ROOT Hips
{
  OFFSET 44.9239 85.3979 -0.247902
  CHANNELS 6 Xposition Yposition Zposition Zrotation Xrotation Yrotation
  JOINT spine
  {
    OFFSET 0 6.3926 0.367606
    CHANNELS 3 Zrotation Xrotation Yrotation
    JOINT spine1
    {
      OFFSET 0 9.17611 0
      CHANNELS 3 Zrotation Xrotation Yrotation
      JOINT spine2
      {
        OFFSET 0 8.79238 0
        CHANNELS 3 Zrotation Xrotation Yrotation
        JOINT Neck
        {
          OFFSET 0 22.5737 1.07624
          CHANNELS 3 Zrotation Xrotation Yrotation
          JOINT Head
          {
            OFFSET 0 6.82011 0
            CHANNELS 3 Zrotation Xrotation Yrotation
            End Site
            {
              OFFSET 0 16.5085 -5.44427
            }
          }
        }
        JOINT RightShoulder
        {
          OFFSET -3.70221 9.49509 -0.515508
          CHANNELS 3 Zrotation Xrotation Yrotation
          JOINT RightArm
          {
            OFFSET 0 12.4537 0
            CHANNELS 3 Zrotation Xrotation Yrotation
            JOINT RightArmRoll
            {
              OFFSET 0 6.28686 0
              CHANNELS 3 Zrotation Xrotation Yrotation
              JOINT RightForeArm
              {
                OFFSET 0 18.3114 0
                CHANNELS 3 Zrotation Xrotation Yrotation
                JOINT RightForeArmRoll
                {
                  OFFSET 0 7.05483 0
                  CHANNELS 3 Zrotation Xrotation Yrotation
                  JOINT RightHand
                  {
                    OFFSET 0 14.1575 0
                    CHANNELS 3 Zrotation Xrotation Yrotation
                    End Site
                    {
                      OFFSET 0 0 0
                    }
                  }
                }
              }
            }
          }
        }
        JOINT LeftShoulder
        {
          OFFSET 3.70221 9.49509 -0.515508
          CHANNELS 3 Zrotation Xrotation Yrotation
          JOINT LeftArm
          {
            OFFSET 0 12.4537 0
            CHANNELS 3 Zrotation Xrotation Yrotation
            JOINT LeftArmRoll
            {
              OFFSET 0 6.28686 0
              CHANNELS 3 Zrotation Xrotation Yrotation
              JOINT LeftForeArm
              {
                OFFSET 0 18.3114 0
                CHANNELS 3 Zrotation Xrotation Yrotation
                JOINT LeftForeArmRoll
                {
                  OFFSET 0 7.05482 0
                  CHANNELS 3 Zrotation Xrotation Yrotation
                  JOINT LeftHand
                  {
                    OFFSET 0 14.1575 0
                    CHANNELS 3 Zrotation Xrotation Yrotation
                    End Site
                    {
                      OFFSET 0 0 0
                    }
                  }
                }
              }
            }
          }
        }
      }
    }
  }
  JOINT RightUpLeg
  {
    OFFSET -5.66616 -1.03903 -0.87161
    CHANNELS 3 Zrotation Xrotation Yrotation
    JOINT RightUpLegRoll
    {
      OFFSET 0 16.6005 0
      CHANNELS 3 Zrotation Xrotation Yrotation
      JOINT RightLeg
      {
        OFFSET 0 -20.5572 0
        CHANNELS 3 Zrotation Xrotation Yrotation
        JOINT RightLegRoll
        {
          OFFSET 0 20.6244 0
          CHANNELS 3 Zrotation Xrotation Yrotation
          JOINT RightFoot
          {
            OFFSET 0 17.1664 0
            CHANNELS 3 Zrotation Xrotation Yrotation
            JOINT RightToeBase
            {
              OFFSET 0 14.3502 0
              CHANNELS 3 Zrotation Xrotation Yrotation
              End Site
              {
                OFFSET 0.00608252 6.94971 -0.80106
              }
            }
          }
        }
      }
    }
  }
  JOINT LeftUpLeg
  {
    OFFSET 5.66616 -1.03903 -0.87161
    CHANNELS 3 Zrotation Xrotation Yrotation
    JOINT LeftUpLegRoll
    {
      OFFSET 0 16.6006 0
      CHANNELS 3 Zrotation Xrotation Yrotation
      JOINT LeftLeg
      {
        OFFSET 0 20.5571 0
        CHANNELS 3 Zrotation Xrotation Yrotation
        JOINT LeftLegRoll
        {
          OFFSET 0 20.8151 0
          CHANNELS 3 Zrotation Xrotation Yrotation
          JOINT LeftFoot
          {
            OFFSET 0 16.9757 0
            CHANNELS 3 Zrotation Xrotation Yrotation
            JOINT LeftToeBase
            {
              OFFSET 0 14.3502 0
              CHANNELS 3 Zrotation Xrotation Yrotation
              End Site
              {
                OFFSET -0.0272592 6.94971 -0.801061
              }
            }
          }
        }
      }
    }
  }
}
MOTION
Frames: 12
Frame Time: 0.00208333
48.6091 85.4135 -0.101051 -1.07246 -6.05284 4.95603 0.133302 -0.550259 -0.0906758 0.266597 2.90208 -0.197382 0.269285 4.54713 -0.20203 -0.650391 5.12787 -0.173226 1.29091 6.0722 -0.29544 56.5505 -1.94567 -0.93841 112.947 16.1646 1.24596 -1.39554e-005 1.54226e-007 -7.11996e-006 14.2955 8.28869 -1.4401 6.97996e-007 6.119e-007 -3 8.02889 -4.95143 0.697692 -52.1361 -2.41648 0.803268 -112.806 17.871 5.59319 2.65094e-005 -2.10459e-006 5.49463e-006 -13.7318 7.6301 1.38137 -2.44017e-005 -3.60771e-006 3.00453 -8.02887 -4.95142 -0.697675 172.828 -3.30284 1.89768 180 7.01517e-015 178.8 177.828 6.38035 179.599 -2.2252e-006 3.61463e-006 -0.0478289 -17.3239 67.6371 19.241 8.13389 25.2356 -3.48687 -169.922 -2.32001 -2.4211 4.54188e-006 -4.6773e-006 -1.03945 -0.690368 -8.95706 0.760653 -2.32467e-006 -3.52045e-006 0.14498 15.6637 68.2977 -19.741 -8.13663 25.2347 3.48197 
48.6164 85.412 -0.106876 -1.06592 -6.03685 4.95653 0.131592 -0.555688 -0.0932066 0.262815 2.89132 -0.202274 0.265557 4.53637 -0.206862 -0.650334 5.15736 -0.165229 1.28478 6.05462 -0.287549 56.5684 -1.90932 -0.916799 112.928 16.1598 1.23049 -1.39554e-005 1.54226e-007 -7.11996e-006 14.3092 8.30851 -1.44283 6.97996e-007 6.119e-007 -3 8.02889 -4.95143 0.697692 -52.1365 -2.41242 0.800444 -112.8 17.8417 5.59965 2.65094e-005 -2.10459e-006 5.49463e-006 -13.7446 7.69395 1.39106 -2.44017e-005 -3.60771e-006 3.00453 -8.02887 -4.95142 -0.697675 172.82 -3.28307 1.90034 180 7.01517e-015 178.8 177.828 6.38669 179.599 -2.2252e-006 3.61463e-006 -0.0478289 -17.3168 67.6345 19.2386 8.13389 25.2356 -3.48687 -169.93 -2.30732 -2.41735 4.54188e-006 -4.6773e-006 -1.03948 -0.693566 -8.95184 0.760198 -2.32467e-006 -3.52045e-006 0.144979 15.6668 68.2957 -19.7396 -8.13663 25.2347 3.48197 
48.6085 85.406 -0.110763 -1.05903 -6.0199 4.95666 0.129789 -0.561462 -0.0958993 0.25882 2.87992 -0.207504 0.261619 4.52497 -0.212029 -0.650737 5.18842 -0.156555 1.27852 6.03626 -0.279097 56.5869 -1.87086 -0.893887 112.907 16.1545 1.21604 -1.39554e-005 1.54226e-007 -7.11996e-006 14.3228 8.32696 -1.44537 6.97996e-007 6.119e-007 -3 8.02889 -4.95143 0.697692 -52.137 -2.40891 0.79801 -112.795 17.8107 5.60579 2.65094e-005 -2.10459e-006 5.49463e-006 -13.7579 7.7589 1.40092 -2.44017e-005 -3.60771e-006 3.00453 -8.02887 -4.95142 -0.697675 172.812 -3.26211 1.90316 180 7.01517e-015 178.799 177.828 6.39335 179.599 -2.2252e-006 3.61463e-006 -0.0478289 -17.3094 67.6318 19.2361 8.13389 25.2356 -3.48687 -169.939 -2.29407 -2.41332 4.54188e-006 -4.6773e-006 -1.03952 -0.696893 -8.94627 0.759717 -2.32467e-006 -3.52045e-006 0.144979 15.6702 68.2939 -19.7383 -8.13663 25.2347 3.48197 
48.6059 85.408 -0.106733 -1.05191 -6.00228 4.95654 0.127919 -0.567477 -0.0987054 0.254673 2.86806 -0.212971 0.257532 4.51312 -0.21743 -0.651466 5.22057 -0.147406 1.27215 6.01735 -0.270253 56.6058 -1.83092 -0.870067 112.885 16.149 1.20231 -1.39554e-005 1.54226e-007 -7.11996e-006 14.3363 8.34444 -1.44778 6.97996e-007 6.119e-007 -3 8.02889 -4.95143 0.697692 -52.1375 -2.40578 0.795849 -112.789 17.7784 5.61171 2.65094e-005 -2.10459e-006 5.49463e-006 -13.7716 7.82462 1.41092 -2.44017e-005 -3.60771e-006 3.00453 -8.02887 -4.95142 -0.697675 172.803 -3.2403 1.90609 180 7.01517e-015 178.799 177.828 6.40025 179.6 -2.2252e-006 3.61463e-006 -0.0478289 -17.3018 67.629 19.2335 8.13389 25.2356 -3.48687 -169.948 -2.28042 -2.40911 4.54188e-006 -4.6773e-006 -1.03957 -0.700311 -8.94047 0.759218 -2.32467e-006 -3.52045e-006 0.144978 15.6739 68.292 -19.737 -8.13663 25.2347 3.48197 
48.6062 85.4115 -0.1108 -1.04464 -5.98427 4.95628 0.12601 -0.573629 -0.101576 0.250439 2.85596 -0.218573 0.25336 4.50101 -0.222966 -0.652386 5.25336 -0.137985 1.26574 5.99814 -0.261186 56.6249 -1.79013 -0.845726 112.863 16.1432 1.18898 -1.39554e-005 1.54226e-007 -7.11996e-006 14.3498 8.36138 -1.45012 6.97996e-007 6.119e-007 -3 8.02889 -4.95143 0.697692 -52.138 -2.40288 0.793844 -112.783 17.7454 5.61751 2.65094e-005 -2.10459e-006 5.49463e-006 -13.7854 7.89078 1.42099 -2.44017e-005 -3.60771e-006 3.00453 -8.02887 -4.95142 -0.697675 172.794 -3.21801 1.90908 180 7.01517e-015 178.798 177.828 6.40725 179.6 -2.2252e-006 3.61463e-006 -0.0478289 -17.294 67.6262 19.2309 8.13389 25.2356 -3.48687 -169.957 -2.26655 -2.40478 4.54188e-006 -4.6773e-006 -1.03962 -0.70378 -8.93452 0.758707 -2.32467e-006 -3.52045e-006 0.144978 15.6778 68.2902 -19.7357 -8.13663 25.2347 3.48197 
48.6078 85.4115 -0.106018 -1.03734 -5.96617 4.95599 0.124092 -0.579817 -0.104463 0.246182 2.84379 -0.224208 0.249164 4.48884 -0.228534 -0.653363 5.2863 -0.128496 1.25931 5.97884 -0.252063 56.644 -1.74913 -0.821258 112.841 16.1374 1.17576 -1.39554e-005 1.54226e-007 -7.11996e-006 14.3633 8.37818 -1.45243 6.97996e-007 6.119e-007 -3 8.02889 -4.95143 0.697692 -52.1385 -2.40003 0.791878 -112.777 17.7123 5.62327 2.65094e-005 -2.10459e-006 5.49463e-006 -13.7993 7.95704 1.43108 -2.44017e-005 -3.60771e-006 3.00453 -8.02887 -4.95142 -0.697675 172.785 -3.19561 1.91209 180 7.01516e-015 178.798 177.828 6.41429 179.6 -2.2252e-006 3.61463e-006 -0.0478289 -17.2861 67.6233 19.2283 8.13389 25.2356 -3.48687 -169.966 -2.25261 -2.40042 4.54188e-006 -4.6773e-006 -1.03967 -0.707263 -8.92854 0.758195 -2.32467e-006 -3.52045e-006 0.144977 15.6818 68.2884 -19.7344 -8.13663 25.2347 3.48197 
48.61 85.4067 -0.10851 -1.03011 -5.94825 4.95576 0.122192 -0.585935 -0.107318 0.241964 2.83174 -0.229776 0.245008 4.4768 -0.234035 -0.65426 5.31892 -0.119141 1.25292 5.9597 -0.243053 56.6629 -1.70855 -0.797051 112.819 16.1316 1.16234 -1.39554e-005 1.54226e-007 -7.11996e-006 14.3768 8.39526 -1.45479 6.97996e-007 6.119e-007 -3 8.02889 -4.95143 0.697692 -52.139 -2.39707 0.789835 -112.771 17.6795 5.6291 2.65094e-005 -2.10459e-006 5.49463e-006 -13.8131 8.02309 1.44114 -2.44017e-005 -3.60771e-006 3.00453 -8.02887 -4.95142 -0.697675 172.776 -3.17344 1.91507 180 7.01516e-015 178.797 177.828 6.42128 179.6 -2.2252e-006 3.61463e-006 -0.0478289 -17.2784 67.6205 19.2257 8.13389 25.2356 -3.48687 -169.975 -2.23879 -2.39612 4.54188e-006 -4.6773e-006 -1.03973 -0.710719 -8.92263 0.757687 -2.32467e-006 -3.52045e-006 0.144977 15.6857 68.2866 -19.7331 -8.13663 25.2347 3.48197 
48.6069 85.4065 -0.129519 -1.02306 -5.93082 4.95572 0.120338 -0.591881 -0.110092 0.237851 2.82002 -0.235175 0.240954 4.46508 -0.239369 -0.65494 5.35076 -0.110124 1.24661 5.94095 -0.234324 56.6816 -1.66903 -0.773496 112.798 16.1261 1.1484 -1.39554e-005 1.54226e-007 -7.11996e-006 14.3904 8.41302 -1.45724 6.97996e-007 6.119e-007 -3 8.02889 -4.95143 0.697692 -52.1394 -2.39383 0.787596 -112.765 17.6476 5.63508 2.65094e-005 -2.10459e-006 5.49463e-006 -13.8268 8.08858 1.45112 -2.44017e-005 -3.60771e-006 3.00453 -8.02887 -4.95142 -0.697675 172.767 -3.15188 1.91797 180 7.01516e-015 178.797 177.829 6.4281 179.6 -2.2252e-006 3.61463e-006 -0.0478289 -17.2708 67.6177 19.2231 8.13389 25.2356 -3.48687 -169.984 -2.22526 -2.39195 4.54188e-006 -4.6773e-006 -1.03977 -0.71411 -8.9169 0.757193 -2.32467e-006 -3.52045e-006 0.144976 15.6893 68.2847 -19.7318 -8.13663 25.2347 3.48197 
48.6095 85.4077 -0.126302 -1.01627 -5.91416 4.95596 0.118559 -0.597551 -0.112736 0.233906 2.80881 -0.240303 0.237065 4.45387 -0.244435 -0.655265 5.38135 -0.101648 1.24042 5.92283 -0.226044 56.6997 -1.6312 -0.750983 112.777 16.121 1.13365 -1.39554e-005 1.54226e-007 -7.11996e-006 14.404 8.43188 -1.45984 6.97996e-007 6.119e-007 -3 8.02889 -4.95143 0.697692 -52.1399 -2.39016 0.785045 -112.759 17.6171 5.64131 2.65094e-005 -2.10459e-006 5.49463e-006 -13.84 8.1532 1.46096 -2.44017e-005 -3.60771e-006 3.00453 -8.02887 -4.95142 -0.697675 172.758 -3.13127 1.92074 180 7.01516e-015 178.797 177.829 6.43467 179.6 -2.2252e-006 3.61463e-006 -0.0478289 -17.2635 67.6151 19.2206 8.13389 25.2356 -3.48687 -169.992 -2.21218 -2.38801 4.54188e-006 -4.6773e-006 -1.03981 -0.717398 -8.91144 0.75672 -2.32467e-006 -3.52045e-006 0.144976 15.6926 68.2828 -19.7305 -8.13663 25.2347 3.48197 
48.6024 85.4074 -0.121859 -1.00987 -5.89856 4.9566 0.116883 -0.602843 -0.115202 0.230194 2.79831 -0.245059 0.233405 4.44336 -0.249132 -0.655098 5.41021 -0.0939159 1.23439 5.90556 -0.218381 56.7172 -1.59569 -0.729903 112.758 16.1164 1.11778 -1.39554e-005 1.54226e-007 -7.11996e-006 14.4177 8.45225 -1.46265 6.97996e-007 6.119e-007 -3 8.02889 -4.95143 0.697692 -52.1403 -2.38587 0.782064 -112.754 17.5885 5.64789 2.65094e-005 -2.10459e-006 5.49463e-006 -13.8528 8.21661 1.47062 -2.44017e-005 -3.60771e-006 3.00453 -8.02887 -4.95142 -0.697675 172.751 -3.11198 1.92334 180 7.01516e-015 178.796 177.829 6.44088 179.601 -2.2252e-006 3.61463e-006 -0.0478289 -17.2566 67.6125 19.2183 8.13389 25.2356 -3.48687 -170 -2.19972 -2.38438 4.54188e-006 -4.6773e-006 -1.03983 -0.720544 -8.90635 0.756276 -2.32467e-006 -3.52045e-006 0.144976 15.6955 68.2809 -19.7291 -8.13663 25.2347 3.48197 
48.6043 85.4041 -0.125622 -1.00395 -5.8843 4.95775 0.115339 -0.607652 -0.117442 0.226779 2.7887 -0.249341 0.230037 4.43376 -0.253361 -0.6543 5.43688 -0.0871311 1.22857 5.88938 -0.211503 56.7338 -1.56313 -0.710645 112.74 16.1124 1.10047 -1.39554e-005 1.54226e-007 -7.11996e-006 14.4314 8.47454 -1.46573 6.97996e-007 6.119e-007 -3 8.02889 -4.95143 0.697692 -52.1408 -2.38082 0.778537 -112.748 17.5624 5.65491 2.65094e-005 -2.10459e-006 5.49463e-006 -13.865 8.27848 1.48003 -2.44017e-005 -3.60771e-006 3.00453 -8.02887 -4.95142 -0.697675 172.743 -3.09438 1.92572 180 7.01516e-015 178.796 177.829 6.44667 179.601 -2.2252e-006 3.61463e-006 -0.0478289 -17.2502 67.6101 19.2161 8.13389 25.2356 -3.48687 -170.007 -2.18805 -2.38113 4.54188e-006 -4.6773e-006 -1.03983 -0.723509 -8.90175 0.75587 -2.32467e-006 -3.52045e-006 0.144975 15.6978 68.2789 -19.7276 -8.13663 25.2347 3.48197 
48.6113 85.4046 -0.127831 -0.99861 -5.87169 4.95951 0.113954 -0.611875 -0.119406 0.223726 2.78018 -0.253049 0.227024 4.42524 -0.25702 -0.652731 5.46088 -0.0814971 1.22299 5.87453 -0.205577 56.7494 -1.53417 -0.6936 112.724 16.1092 1.08143 -1.39554e-005 1.54226e-007 -7.11996e-006 14.4453 8.49917 -1.46912 6.97996e-007 6.119e-007 -3 8.02889 -4.95143 0.697692 -52.1411 -2.37483 0.774346 -112.743 17.5393 5.66246 2.65094e-005 -2.10459e-006 5.49463e-006 -13.8764 8.33848 1.48914 -2.44017e-005 -3.60771e-006 3.00453 -8.02887 -4.95142 -0.697675 172.737 -3.07881 1.92784 180 7.01516e-015 178.796 177.829 6.4519 179.601 -2.2252e-006 3.61463e-006 -0.0478289 -17.2444 67.6079 19.2141 8.13389 25.2356 -3.48687 -170.013 -2.17735 -2.37836 4.54188e-006 -4.6773e-006 -1.03981 -0.726253 -8.89774 0.755509 -2.32467e-006 -3.52045e-006 0.144976 15.6993 68.2768 -19.726 -8.13663 25.2347 3.48197 
